<svg width="16" height="16" viewBox="0 0 16 16" fill="none" xmlns="http://www.w3.org/2000/svg">
<path fill-rule="evenodd" clip-rule="evenodd" d="M8 0C3.58172 0 0 3.58172 0 8C0 12.4183 3.58172 16 8 16C12.4183 16 16 12.4183 16 8C16 3.58172 12.4183 0 8 0ZM11.538 7.55991L9.89568 5.9176C9.7949 5.81682 9.6315 5.81682 9.53072 5.9176C9.42994 6.01838 9.42994 6.18178 9.53072 6.28256L10.7325 7.48433L4.64583 7.48433V8.00045H10.7325L9.53072 9.20222C9.42994 9.303 9.42994 9.4664 9.53072 9.56718C9.6315 9.66796 9.7949 9.66796 9.89568 9.56718L11.538 7.92487C11.6388 7.82409 11.6388 7.66069 11.538 7.55991Z" fill="black"/>
</svg>
