<svg width="16" height="16" viewBox="0 0 16 16" fill="none" xmlns="http://www.w3.org/2000/svg">
<path fill-rule="evenodd" clip-rule="evenodd" d="M8 0C3.58172 0 0 3.58172 0 8C0 12.4183 3.58172 16 8 16C12.4183 16 16 12.4183 16 8C16 3.58172 12.4183 0 8 0ZM11.6988 6.22915C11.7769 6.15104 11.7769 6.02441 11.6988 5.94631L11.5071 5.7547C11.429 5.6766 11.3024 5.6766 11.2243 5.7547L7.11767 9.86134C7.03692 9.94208 6.90507 9.93895 6.82826 9.85445L4.75992 7.57927C4.68562 7.49754 4.55913 7.49152 4.47739 7.56582L4.27689 7.74809C4.19516 7.82239 4.18914 7.94888 4.26344 8.03061L6.80513 10.8265C6.88194 10.911 7.01379 10.9141 7.09454 10.8334L11.6988 6.22915Z" fill="black"/>
</svg>
