<svg width="18" height="18" viewBox="0 0 18 18" fill="none" xmlns="http://www.w3.org/2000/svg">
<mask id="mask0_135_715" style="mask-type:alpha" maskUnits="userSpaceOnUse" x="0" y="0" width="18" height="18">
<rect width="18" height="18" fill="#D9D9D9"/>
</mask>
<g mask="url(#mask0_135_715)">
<path d="M8.99998 9.51917C8.27812 9.51917 7.66016 9.26214 7.14609 8.74809C6.63203 8.23403 6.375 7.61607 6.375 6.89421V4.55047C6.375 4.27604 6.47036 4.04277 6.66107 3.85067C6.85177 3.65856 7.08334 3.5625 7.35577 3.5625C7.52404 3.5625 7.68052 3.60144 7.82524 3.67933C7.96995 3.75722 8.08749 3.86539 8.17787 4.00384C8.26826 3.86539 8.38581 3.75722 8.53052 3.67933C8.67523 3.60144 8.83172 3.5625 8.99998 3.5625C9.16824 3.5625 9.32473 3.60144 9.46944 3.67933C9.61416 3.75722 9.73171 3.86539 9.82209 4.00384C9.91247 3.86539 10.03 3.75722 10.1747 3.67933C10.3194 3.60144 10.4747 3.5625 10.6406 3.5625C10.917 3.5625 11.1502 3.65856 11.3401 3.85067C11.53 4.04277 11.625 4.27604 11.625 4.55047V6.89421C11.625 7.61607 11.3679 8.23403 10.8539 8.74809C10.3398 9.26214 9.72184 9.51917 8.99998 9.51917ZM8.99998 8.39421C9.41248 8.39421 9.76561 8.24733 10.0594 7.95358C10.3531 7.65983 10.5 7.30671 10.5 6.89421V5.01921H7.49998V6.89421C7.49998 7.30671 7.64686 7.65983 7.94061 7.95358C8.23436 8.24733 8.58748 8.39421 8.99998 8.39421ZM4.5144 15.2307C4.19806 15.2307 3.92908 15.1199 3.70746 14.8982C3.48582 14.6766 3.375 14.4076 3.375 14.0913V13.5634C3.375 13.1961 3.47476 12.856 3.67429 12.543C3.8738 12.23 4.14038 11.9894 4.47403 11.8211C5.21538 11.4577 5.96322 11.1851 6.71754 11.0033C7.47187 10.8216 8.23268 10.7308 8.99998 10.7308C9.76728 10.7308 10.5281 10.8216 11.2824 11.0033C12.0367 11.1851 12.7846 11.4577 13.5259 11.8211C13.8596 11.9894 14.1262 12.23 14.3257 12.543C14.5252 12.856 14.625 13.1961 14.625 13.5634V14.0913C14.625 14.4076 14.5141 14.6766 14.2925 14.8982C14.0709 15.1199 13.8019 15.2307 13.4856 15.2307H4.5144ZM4.49998 14.1057H13.5V13.5634C13.5 13.4115 13.456 13.2709 13.368 13.1415C13.28 13.0122 13.1606 12.9067 13.0096 12.8249C12.3634 12.5067 11.7046 12.2656 11.033 12.1016C10.3614 11.9377 9.68376 11.8557 8.99998 11.8557C8.31621 11.8557 7.63853 11.9377 6.96696 12.1016C6.29538 12.2656 5.63652 12.5067 4.99037 12.8249C4.83941 12.9067 4.71994 13.0122 4.63196 13.1415C4.54397 13.2709 4.49998 13.4115 4.49998 13.5634V14.1057Z" fill="#636363"/>
</g>
</svg>
