<svg width="18" height="18" viewBox="0 0 18 18" fill="none" xmlns="http://www.w3.org/2000/svg">
<mask id="mask0_135_720" style="mask-type:alpha" maskUnits="userSpaceOnUse" x="0" y="0" width="18" height="18">
<rect width="18" height="18" fill="#D9D9D9"/>
</mask>
<g mask="url(#mask0_135_720)">
<path d="M11.0192 13.5C10.5375 13.5 10.1286 13.3319 9.79254 12.9959C9.45649 12.6598 9.28847 12.2509 9.28847 11.7692C9.28847 11.2875 9.45649 10.8786 9.79254 10.5425C10.1286 10.2065 10.5375 10.0385 11.0192 10.0385C11.501 10.0385 11.9098 10.2065 12.2459 10.5425C12.582 10.8786 12.75 11.2875 12.75 11.7692C12.75 12.2509 12.582 12.6598 12.2459 12.9959C11.9098 13.3319 11.501 13.5 11.0192 13.5ZM3.98078 16.1249C3.60193 16.1249 3.28125 15.9937 3.01875 15.7312C2.75625 15.4687 2.625 15.148 2.625 14.7692V4.73076C2.625 4.35191 2.75625 4.03123 3.01875 3.76873C3.28125 3.50623 3.60193 3.37498 3.98078 3.37498H5.01924V2.36535C5.01924 2.20094 5.07429 2.06368 5.18439 1.95358C5.29448 1.8435 5.43174 1.78845 5.59616 1.78845C5.76058 1.78845 5.89783 1.8435 6.00793 1.95358C6.11802 2.06368 6.17306 2.20094 6.17306 2.36535V3.37498H11.8557V2.35093C11.8557 2.19132 11.9096 2.05767 12.0173 1.94998C12.125 1.8423 12.2586 1.78845 12.4182 1.78845C12.5778 1.78845 12.7115 1.8423 12.8192 1.94998C12.9269 2.05767 12.9807 2.19132 12.9807 2.35093V3.37498H14.0192C14.398 3.37498 14.7187 3.50623 14.9812 3.76873C15.2437 4.03123 15.375 4.35191 15.375 4.73076V14.7692C15.375 15.148 15.2437 15.4687 14.9812 15.7312C14.7187 15.9937 14.398 16.1249 14.0192 16.1249H3.98078ZM3.98078 15H14.0192C14.0769 15 14.1298 14.9759 14.1779 14.9279C14.2259 14.8798 14.25 14.8269 14.25 14.7692V7.73076H3.74998V14.7692C3.74998 14.8269 3.77402 14.8798 3.82209 14.9279C3.87018 14.9759 3.92308 15 3.98078 15ZM3.74998 6.60578H14.25V4.73076C14.25 4.67306 14.2259 4.62017 14.1779 4.57208C14.1298 4.524 14.0769 4.49996 14.0192 4.49996H3.98078C3.92308 4.49996 3.87018 4.524 3.82209 4.57208C3.77402 4.62017 3.74998 4.67306 3.74998 4.73076V6.60578Z" fill="#636363"/>
</g>
</svg>
