<svg width="20" height="20" viewBox="0 0 20 20" fill="none" xmlns="http://www.w3.org/2000/svg">
<g clip-path="url(#clip0_839_2205)">
<path d="M15.0252 13.8476L18.5943 17.4159L17.4152 18.5951L13.8468 15.0259C12.5191 16.0903 10.8677 16.6692 9.16601 16.6667C5.02602 16.6667 1.66602 13.3067 1.66602 9.16675C1.66602 5.02675 5.02602 1.66675 9.16601 1.66675C13.306 1.66675 16.666 5.02675 16.666 9.16675C16.6684 10.8684 16.0895 12.5199 15.0252 13.8476ZM13.3535 13.2292C14.4111 12.1417 15.0017 10.6838 14.9993 9.16675C14.9993 5.94341 12.3885 3.33341 9.16601 3.33341C5.94268 3.33341 3.33268 5.94341 3.33268 9.16675C3.33268 12.3892 5.94268 15.0001 9.16601 15.0001C10.683 15.0025 12.1409 14.4118 13.2285 13.3542L13.3535 13.2292V13.2292Z" fill="white"/>
</g>
<defs>
<clipPath id="clip0_839_2205">
<rect width="20" height="20" fill="white"/>
</clipPath>
</defs>
</svg>
