<?xml version="1.0" encoding="utf-8"?>
<!-- Generator: Adobe Illustrator 24.1.1, SVG Export Plug-In . SVG Version: 6.00 Build 0)  -->
<svg version="1.1" id="Ebene_1" xmlns="http://www.w3.org/2000/svg" xmlns:xlink="http://www.w3.org/1999/xlink" x="0px" y="0px"
	 viewBox="0 0 240 100" style="enable-background:new 0 0 240 100;" xml:space="preserve">
<g>
	<path d="M70.4,75.3V39.9c0-1.8,0.1-4.7,0.4-8.7h-0.1c-0.3,1.1-0.6,2-0.9,2.8c-0.3,0.8-0.5,1.4-0.8,1.9L51.1,75.3h-2L31.2,36.1
		c-0.5-1.2-1.1-2.9-1.6-5h-0.1c0.1,1.1,0.2,2.3,0.2,3.8c0,1.4,0.1,3,0.1,4.7v35.7h-4.6V24h5.6l17.4,38.5c0.4,0.8,0.7,1.6,1.1,2.5
		c0.3,0.8,0.7,1.7,0.9,2.7h0.2c0.3-1,0.6-1.8,0.9-2.6c0.3-0.8,0.6-1.6,1-2.5L69.7,24h5.3v51.2H70.4z"/>
</g>
<path d="M0,0v100h100V0H0z M95,95H5V5h90V95z"/>
<g>
	<path d="M124.8,56.9c0,2.2,0.3,4.2,0.9,6s1.4,3.3,2.5,4.5s2.4,2.2,3.9,2.8s3.3,1,5.2,1c4.1,0,8-1.4,11.7-4.3v4.5
		c-3.5,2.5-7.7,3.7-12.7,3.7c-2.4,0-4.7-0.4-6.7-1.3c-2-0.9-3.7-2.1-5.1-3.7c-1.4-1.6-2.5-3.6-3.2-6c-0.8-2.4-1.1-5.1-1.1-8.1
		c0-2.7,0.4-5.3,1.2-7.6c0.8-2.3,2-4.3,3.5-6c1.5-1.7,3.2-3,5.2-4c2-1,4.2-1.4,6.6-1.4c2.4,0,4.4,0.4,6.2,1.2s3.3,2,4.5,3.5
		c1.2,1.5,2.2,3.4,2.8,5.6c0.6,2.2,1,4.6,1,7.3v2.3H124.8z M146.5,52.9c-0.1-3.8-1-6.7-2.7-8.8c-1.7-2.1-4.1-3.1-7.2-3.1
		c-1.5,0-3,0.3-4.3,0.8c-1.3,0.5-2.5,1.3-3.5,2.4s-1.8,2.3-2.5,3.8c-0.7,1.5-1.1,3.2-1.4,5H146.5z"/>
	<path d="M175.8,73.9c-1.6,0.8-3.3,1.2-5.1,1.2c-5.9,0-8.8-3.4-8.8-10.2V41.8h-6.4v-4h6.4v-9.2l4.6-1.5v10.7h9.4v4h-9.4v22.3
		c0,2.5,0.4,4.3,1.2,5.3c0.8,1.1,2.2,1.6,4.1,1.6c1.4,0,2.8-0.4,4.1-1.3V73.9z"/>
	<path d="M201.4,42.5c-1.1-0.8-2.4-1.2-4.1-1.2c-1.2,0-2.3,0.2-3.2,0.7c-0.9,0.5-1.7,1.1-2.4,1.9c-0.7,0.8-1.3,1.7-1.8,2.7
		c-0.5,1-0.9,2.1-1.2,3.2c-0.3,1.1-0.5,2.2-0.6,3.4c-0.1,1.1-0.2,2.2-0.2,3.2v17.9h-4.5V37.9h4.5v7.8h0.1c0.4-1.3,1-2.5,1.6-3.6
		c0.7-1.1,1.4-1.9,2.3-2.7s1.8-1.3,2.8-1.7c1-0.4,2.1-0.6,3.2-0.6c0.7,0,1.4,0,2,0.1c0.6,0.1,1.1,0.2,1.6,0.4V42.5z"/>
	<path d="M222,75.2c-2.7,0-5.1-0.5-7.3-1.4s-4-2.2-5.5-3.8s-2.7-3.6-3.5-5.9c-0.8-2.3-1.2-4.9-1.2-7.7c0-3,0.4-5.8,1.3-8.2
		c0.9-2.4,2.1-4.4,3.7-6.1c1.6-1.7,3.5-3,5.7-3.8c2.2-0.9,4.7-1.3,7.5-1.3c2.6,0,5,0.4,7.1,1.3c2.1,0.9,3.9,2.1,5.4,3.8
		c1.5,1.6,2.6,3.6,3.4,6c0.8,2.4,1.2,5,1.2,8c0,2.9-0.4,5.4-1.2,7.8c-0.8,2.3-2,4.4-3.5,6c-1.5,1.7-3.4,3-5.6,3.9
		C227.3,74.7,224.8,75.2,222,75.2z M222.4,41c-2,0-3.8,0.3-5.4,1c-1.6,0.7-3,1.7-4.2,3c-1.2,1.3-2,2.9-2.7,4.8
		c-0.6,1.9-0.9,4.1-0.9,6.5c0,2.3,0.3,4.3,0.9,6.2c0.6,1.8,1.5,3.4,2.6,4.7c1.1,1.3,2.5,2.3,4.1,3c1.6,0.7,3.4,1.1,5.4,1.1
		c2,0,3.8-0.3,5.4-1c1.6-0.7,2.9-1.7,4-3c1.1-1.3,1.9-2.9,2.5-4.8c0.6-1.9,0.8-4,0.8-6.4c0-4.9-1.1-8.7-3.3-11.3S226.4,41,222.4,41z
		"/>
</g>
</svg>
